<svg xmlns="http://www.w3.org/2000/svg" version="1.1" xmlns:xlink="http://www.w3.org/1999/xlink" xmlns:svgjs="http://svgjs.dev/svgjs" width="1000" height="151" viewBox="0 0 1000 151"><g transform="matrix(1,0,0,1,-0.6060606060606233,-0.22638400339216957)"><svg viewBox="0 0 396 60" data-background-color="#046380" preserveAspectRatio="xMidYMid meet" height="151" width="1000" xmlns="http://www.w3.org/2000/svg" xmlns:xlink="http://www.w3.org/1999/xlink"><g id="tight-bounds" transform="matrix(1,0,0,1,0.2400000000000091,0.08995390863265129)"><svg viewBox="0 0 395.52 59.82009218273467" height="59.82009218273467" width="395.52"><g><svg viewBox="0 0 484.5152056898522 73.28009776573526" height="59.82009218273467" width="395.52"><g><rect width="2.5202230172177504" height="63.62960732191194" x="402.1174424534496" y="4.825245221911661" fill="#ffffff" opacity="1" stroke-width="0" stroke="transparent" fill-opacity="1" class="rect-o-0" data-fill-palette-color="primary" rx="1%" id="o-0" data-palette-color="#ffffff"></rect></g><g transform="matrix(1,0,0,1,0,10.127712498737655)"><svg viewBox="0 0 395.52 53.024672768259954" height="53.024672768259954" width="395.52"><g><svg viewBox="0 0 395.52 53.024672768259954" height="53.024672768259954" width="395.52"><g><svg viewBox="0 0 395.52 27.946264988603705" height="27.946264988603705" width="395.52"><g transform="matrix(1,0,0,1,0,0)"><svg width="395.52" viewBox="4 -34.849998474121094 504.510009765625 35.64999771118164" height="27.946264988603705" data-palette-color="#ffffff"><path d="M20.55-4.2L33.05-34.1 37.25-34.1 37.25 0 33.55 0 33.55-27.25 22.15 0 18.65 0 7.75-27.15 7.75 0 4 0 4-34.1 8.6-34.1 20.55-4.2ZM69.9 0L66.4 0 62.9-9.55 48.75-9.55 45.6 0 41.85 0 53.95-34.1 57.45-34.1 69.9 0ZM55.65-29.2L49.9-12.65 61.75-12.65 55.65-29.2ZM78.25 0L74.5 0 74.5-34.1 78.5-34.1 95.84-5.65 95.84-34.1 99.59-34.1 99.59 0 95.59 0 78.25-28.35 78.25 0ZM107.59 0L107.59-34.1 116.04-34.1Q121.29-34.1 125.09-32.08 128.89-30.05 130.89-26.2 132.89-22.35 132.89-17L132.89-17Q132.89-9 128.44-4.5 123.99 0 116.04 0L116.04 0 107.59 0ZM111.34-3.4L115.94-3.4Q122.04-3.4 125.49-6.75 128.94-10.1 128.94-17L128.94-17Q128.94-23.95 125.49-27.3 122.04-30.65 115.94-30.65L115.94-30.65 111.34-30.65 111.34-3.4ZM162.29 0L158.79 0 155.29-9.55 141.14-9.55 137.99 0 134.24 0 146.34-34.1 149.84-34.1 162.29 0ZM148.04-29.2L142.29-12.65 154.14-12.65 148.04-29.2ZM189.94 0L185.99 0 177.34-15.05 170.59-15.05 170.59 0 166.84 0 166.84-34.1 178.24-34.1Q181.34-34.1 183.69-32.9 186.04-31.7 187.29-29.53 188.54-27.35 188.54-24.55L188.54-24.55Q188.54-21.15 186.49-18.73 184.44-16.3 181.04-15.45L181.04-15.45 189.94 0ZM170.59-31L170.59-18.15 177.74-18.15Q181.04-18.15 182.81-19.9 184.59-21.65 184.59-24.55L184.59-24.55Q184.59-27.45 182.81-29.23 181.04-31 177.74-31L177.74-31 170.59-31ZM204.99 0L194.64 0 194.64-3.3 197.94-3.3 197.94-30.8 194.64-30.8 194.64-34.1 204.99-34.1 204.99-30.8 201.69-30.8 201.69-3.3 204.99-3.3 204.99 0ZM215.48 0L211.73 0 211.73-34.1 215.73-34.1 233.08-5.65 233.08-34.1 236.83-34.1 236.83 0 232.83 0 215.48-28.35 215.48 0ZM269.73 0L265.98 0 265.98-34.1 269.98-34.1 287.33-5.65 287.33-34.1 291.08-34.1 291.08 0 287.08 0 269.73-28.35 269.73 0ZM323.73 0L320.23 0 316.73-9.55 302.58-9.55 299.43 0 295.68 0 307.78-34.1 311.28-34.1 323.73 0ZM309.48-29.2L303.73-12.65 315.58-12.65 309.48-29.2ZM336.17-4.15L346.42-34.1 350.07-34.1 338.17 0 334.17 0 322.32-34.1 326.07-34.1 336.17-4.15ZM363.17 0L352.82 0 352.82-3.3 356.12-3.3 356.12-30.8 352.82-30.8 352.82-34.1 363.17-34.1 363.17-30.8 359.87-30.8 359.87-3.3 363.17-3.3 363.17 0ZM381.27 0.8Q376.97 0.8 373.84-1.33 370.72-3.45 369.04-7.43 367.37-11.4 367.37-16.95L367.37-16.95Q367.37-22.55 369.04-26.58 370.72-30.6 373.84-32.73 376.97-34.85 381.27-34.85L381.27-34.85Q385.22-34.85 388.09-33.08 390.97-31.3 393.02-27.85L393.02-27.85 390.07-25.75Q386.92-31.45 381.27-31.45L381.27-31.45Q376.57-31.45 373.94-27.63 371.32-23.8 371.32-17L371.32-17Q371.32-10.25 373.97-6.43 376.62-2.6 381.27-2.6L381.27-2.6Q383.87-2.6 385.94-3.85 388.02-5.1 389.22-7.55 390.42-10 390.42-13.55L390.42-13.55 382.37-13.55 382.37-16.65 394.12-16.65 394.12-13.55Q394.12-8.9 392.47-5.68 390.82-2.45 387.89-0.83 384.97 0.8 381.27 0.8L381.27 0.8ZM424.87 0L421.37 0 417.87-9.55 403.72-9.55 400.57 0 396.82 0 408.92-34.1 412.42-34.1 424.87 0ZM410.62-29.2L404.87-12.65 416.72-12.65 410.62-29.2ZM437.66 0L433.96 0 433.96-31 423.21-31 423.21-34.1 448.41-34.1 448.41-31 437.66-31 437.66 0ZM464.06 0.8Q459.81 0.8 456.49-1.48 453.16-3.75 451.29-7.8 449.41-11.85 449.41-17L449.41-17Q449.41-22.15 451.29-26.23 453.16-30.3 456.49-32.58 459.81-34.85 464.06-34.85L464.06-34.85Q468.31-34.85 471.64-32.58 474.96-30.3 476.84-26.23 478.71-22.15 478.71-16.95L478.71-16.95Q478.71-11.8 476.84-7.78 474.96-3.75 471.64-1.48 468.31 0.8 464.06 0.8L464.06 0.8ZM464.06-2.65Q467.16-2.65 469.64-4.48 472.11-6.3 473.51-9.58 474.91-12.85 474.91-17L474.91-17Q474.91-21.15 473.51-24.45 472.11-27.75 469.64-29.6 467.16-31.45 464.06-31.45L464.06-31.45Q460.96-31.45 458.49-29.6 456.01-27.75 454.61-24.45 453.21-21.15 453.21-17L453.21-17Q453.21-12.85 454.61-9.58 456.01-6.3 458.49-4.48 460.96-2.65 464.06-2.65L464.06-2.65ZM508.51 0L504.56 0 495.91-15.05 489.16-15.05 489.16 0 485.41 0 485.41-34.1 496.81-34.1Q499.91-34.1 502.26-32.9 504.61-31.7 505.86-29.53 507.11-27.35 507.11-24.55L507.11-24.55Q507.11-21.15 505.06-18.73 503.01-16.3 499.61-15.45L499.61-15.45 508.51 0ZM489.16-31L489.16-18.15 496.31-18.15Q499.61-18.15 501.38-19.9 503.16-21.65 503.16-24.55L503.16-24.55Q503.16-27.45 501.38-29.23 499.61-31 496.31-31L496.31-31 489.16-31Z" opacity="1" transform="matrix(1,0,0,1,0,0)" fill="#ffffff" class="undefined-text-0" data-fill-palette-color="primary" id="text-0"></path></svg></g></svg></g><g transform="matrix(1,0,0,1,163.310208,34.54370744205331)"><svg viewBox="0 0 232.209792 18.48096532620664" height="18.48096532620664" width="232.209792"><g transform="matrix(1,0,0,1,0,0)"><svg width="232.209792" viewBox="4.849999904632568 -36.83000183105469 467.67999267578125 37.230003356933594" height="18.48096532620664" data-palette-color="#ffffff"><path d="M13.35-14.95L9.68-14.95 9.68 0 4.85 0 4.85-35.83 14.98-35.83Q18.38-35.83 20.85-35.14 23.33-34.45 24.94-33.15 26.55-31.85 27.33-30.01 28.1-28.18 28.1-25.9L28.1-25.9Q28.1-24 27.5-22.35 26.9-20.7 25.76-19.39 24.63-18.07 22.99-17.15 21.35-16.23 19.28-15.75L19.28-15.75Q20.18-15.23 20.88-14.23L20.88-14.23 31.33 0 27.03 0Q25.7 0 25.08-1.03L25.08-1.03 15.78-13.83Q15.35-14.43 14.85-14.69 14.35-14.95 13.35-14.95L13.35-14.95ZM9.68-32L9.68-18.48 14.75-18.48Q16.88-18.48 18.49-18.99 20.1-19.5 21.19-20.44 22.28-21.38 22.83-22.68 23.38-23.98 23.38-25.55L23.38-25.55Q23.38-28.75 21.26-30.38 19.15-32 14.98-32L14.98-32 9.68-32ZM45.87-25.73L45.87-25.73Q48.15-25.73 50.07-24.96 52-24.2 53.4-22.76 54.8-21.33 55.59-19.21 56.37-17.1 56.37-14.4L56.37-14.4Q56.37-13.35 56.15-13 55.92-12.65 55.3-12.65L55.3-12.65 38.45-12.65Q38.5-10.25 39.1-8.47 39.7-6.7 40.75-5.51 41.8-4.33 43.25-3.74 44.7-3.15 46.5-3.15L46.5-3.15Q48.17-3.15 49.39-3.54 50.6-3.93 51.47-4.38 52.35-4.83 52.94-5.21 53.52-5.6 53.95-5.6L53.95-5.6Q54.5-5.6 54.8-5.18L54.8-5.18 56.05-3.55Q55.22-2.55 54.07-1.81 52.92-1.07 51.61-0.6 50.3-0.13 48.9 0.11 47.5 0.35 46.12 0.35L46.12 0.35Q43.5 0.35 41.29-0.54 39.07-1.43 37.46-3.14 35.85-4.85 34.95-7.38 34.05-9.9 34.05-13.18L34.05-13.18Q34.05-15.83 34.86-18.13 35.67-20.43 37.2-22.11 38.72-23.8 40.92-24.76 43.12-25.73 45.87-25.73ZM45.97-22.45L45.97-22.45Q42.75-22.45 40.9-20.59 39.05-18.73 38.6-15.43L38.6-15.43 52.37-15.43Q52.37-16.98 51.95-18.26 51.52-19.55 50.7-20.49 49.87-21.43 48.69-21.94 47.5-22.45 45.97-22.45ZM80.65-16.2L80.65 0 78.67 0Q78.02 0 77.62-0.2 77.22-0.4 77.1-1.05L77.1-1.05 76.6-3.4Q75.6-2.5 74.65-1.79 73.7-1.07 72.65-0.59 71.6-0.1 70.41 0.15 69.22 0.4 67.77 0.4L67.77 0.4Q66.3 0.4 65.01-0.01 63.72-0.43 62.77-1.25 61.82-2.08 61.26-3.34 60.7-4.6 60.7-6.33L60.7-6.33Q60.7-7.83 61.52-9.21 62.35-10.6 64.18-11.68 66.02-12.75 69-13.44 71.97-14.13 76.27-14.23L76.27-14.23 76.27-16.2Q76.27-19.15 75.01-20.66 73.75-22.18 71.27-22.18L71.27-22.18Q69.65-22.18 68.53-21.76 67.42-21.35 66.61-20.84 65.8-20.33 65.21-19.91 64.62-19.5 64.05-19.5L64.05-19.5Q63.6-19.5 63.26-19.74 62.92-19.98 62.72-20.33L62.72-20.33 61.92-21.75Q64.02-23.78 66.45-24.78 68.87-25.78 71.82-25.78L71.82-25.78Q73.95-25.78 75.6-25.08 77.25-24.38 78.37-23.13 79.5-21.88 80.07-20.1 80.65-18.32 80.65-16.2L80.65-16.2ZM69.1-2.73L69.1-2.73Q70.27-2.73 71.25-2.96 72.22-3.2 73.08-3.64 73.95-4.08 74.73-4.7 75.52-5.33 76.27-6.13L76.27-6.13 76.27-11.4Q73.2-11.3 71.05-10.91 68.9-10.53 67.55-9.9 66.2-9.28 65.58-8.43 64.97-7.58 64.97-6.53L64.97-6.53Q64.97-5.53 65.3-4.8 65.62-4.08 66.17-3.61 66.72-3.15 67.47-2.94 68.22-2.73 69.1-2.73ZM107.87 0L105.22 0Q104.27 0 104.02-0.93L104.02-0.93 103.62-4Q101.99-2.02 99.91-0.84 97.82 0.35 95.12 0.35L95.12 0.35Q92.94 0.35 91.17-0.49 89.39-1.33 88.14-2.95 86.89-4.58 86.22-7 85.54-9.43 85.54-12.58L85.54-12.58Q85.54-15.38 86.29-17.79 87.04-20.2 88.46-21.98 89.87-23.75 91.89-24.76 93.92-25.78 96.49-25.78L96.49-25.78Q98.82-25.78 100.47-24.99 102.12-24.2 103.42-22.78L103.42-22.78 103.42-36.83 107.87-36.83 107.87 0ZM96.59-3.25L96.59-3.25Q98.77-3.25 100.41-4.25 102.04-5.25 103.42-7.08L103.42-7.08 103.42-19.33Q102.19-20.98 100.73-21.64 99.27-22.3 97.49-22.3L97.49-22.3Q93.94-22.3 92.04-19.78 90.14-17.25 90.14-12.58L90.14-12.58Q90.14-10.1 90.57-8.34 90.99-6.58 91.82-5.44 92.64-4.3 93.84-3.78 95.04-3.25 96.59-3.25ZM129.89 0L121.69-25.33 125.19-25.33Q125.74-25.33 126.09-25.05 126.44-24.78 126.56-24.4L126.56-24.4 131.41-8.1Q131.61-7.2 131.79-6.36 131.96-5.53 132.09-4.67L132.09-4.67Q132.29-5.53 132.54-6.36 132.79-7.2 133.06-8.1L133.06-8.1 138.41-24.5Q138.54-24.88 138.85-25.13 139.16-25.38 139.64-25.38L139.64-25.38 141.56-25.38Q142.06-25.38 142.39-25.13 142.71-24.88 142.84-24.5L142.84-24.5 148.06-8.1Q148.34-7.23 148.55-6.38 148.76-5.53 148.96-4.7L148.96-4.7Q149.09-5.53 149.29-6.43 149.49-7.33 149.71-8.1L149.71-8.1 154.66-24.4Q154.79-24.8 155.14-25.06 155.49-25.33 155.96-25.33L155.96-25.33 159.31-25.33 151.11 0 147.59 0Q146.94 0 146.69-0.85L146.69-0.85 141.09-18.03Q140.89-18.6 140.76-19.19 140.64-19.78 140.51-20.35L140.51-20.35Q140.39-19.78 140.26-19.18 140.14-18.57 139.94-18L139.94-18 134.26-0.85Q133.99 0 133.24 0L133.24 0 129.89 0ZM163.79-25.33L168.24-25.33 168.24 0 163.79 0 163.79-25.33ZM169.24-33.27L169.24-33.27Q169.24-32.63 168.97-32.06 168.71-31.5 168.27-31.06 167.84-30.63 167.26-30.38 166.69-30.13 166.04-30.13L166.04-30.13Q165.39-30.13 164.82-30.38 164.26-30.63 163.82-31.06 163.39-31.5 163.14-32.06 162.89-32.63 162.89-33.27L162.89-33.27Q162.89-33.93 163.14-34.51 163.39-35.1 163.82-35.54 164.26-35.98 164.82-36.23 165.39-36.48 166.04-36.48L166.04-36.48Q166.69-36.48 167.26-36.23 167.84-35.98 168.27-35.54 168.71-35.1 168.97-34.51 169.24-33.93 169.24-33.27ZM183.76 0.4L183.76 0.4Q180.76 0.4 179.15-1.28 177.53-2.95 177.53-6.1L177.53-6.1 177.53-21.6 174.48-21.6Q174.08-21.6 173.81-21.84 173.53-22.08 173.53-22.58L173.53-22.58 173.53-24.35 177.68-24.88 178.71-32.7Q178.76-33.08 179.03-33.31 179.31-33.55 179.73-33.55L179.73-33.55 181.98-33.55 181.98-24.83 189.23-24.83 189.23-21.6 181.98-21.6 181.98-6.4Q181.98-4.8 182.76-4.03 183.53-3.25 184.76-3.25L184.76-3.25Q185.46-3.25 185.97-3.44 186.48-3.63 186.86-3.85 187.23-4.08 187.5-4.26 187.76-4.45 187.96-4.45L187.96-4.45Q188.31-4.45 188.58-4.03L188.58-4.03 189.88-1.9Q188.73-0.83 187.11-0.21 185.48 0.4 183.76 0.4ZM199.18 0L194.73 0 194.73-36.83 199.18-36.83 199.18-21.93Q200.81-23.65 202.78-24.69 204.76-25.73 207.33-25.73L207.33-25.73Q209.41-25.73 210.99-25.04 212.58-24.35 213.64-23.09 214.71-21.83 215.26-20.05 215.81-18.28 215.81-16.13L215.81-16.13 215.81 0 211.36 0 211.36-16.13Q211.36-19 210.04-20.59 208.73-22.18 206.03-22.18L206.03-22.18Q204.06-22.18 202.34-21.23 200.63-20.28 199.18-18.65L199.18-18.65 199.18 0ZM232.78-25.73L232.78-25.73Q235.55-25.73 237.79-24.8 240.03-23.88 241.59-22.18 243.15-20.48 243.99-18.06 244.83-15.65 244.83-12.68L244.83-12.68Q244.83-9.68 243.99-7.28 243.15-4.88 241.59-3.18 240.03-1.48 237.79-0.56 235.55 0.35 232.78 0.35L232.78 0.35Q230 0.35 227.77-0.56 225.53-1.48 223.95-3.18 222.38-4.88 221.53-7.28 220.68-9.68 220.68-12.68L220.68-12.68Q220.68-15.65 221.53-18.06 222.38-20.48 223.95-22.18 225.53-23.88 227.77-24.8 230-25.73 232.78-25.73ZM232.78-3.13L232.78-3.13Q236.53-3.13 238.38-5.64 240.23-8.15 240.23-12.65L240.23-12.65Q240.23-17.18 238.38-19.7 236.53-22.23 232.78-22.23L232.78-22.23Q230.88-22.23 229.48-21.58 228.08-20.93 227.14-19.7 226.2-18.48 225.74-16.69 225.28-14.9 225.28-12.65L225.28-12.65Q225.28-10.4 225.74-8.63 226.2-6.85 227.14-5.64 228.08-4.42 229.48-3.78 230.88-3.13 232.78-3.13ZM249.73-25.33L254.18-25.33 254.18-9.18Q254.18-6.3 255.5-4.73 256.83-3.15 259.5-3.15L259.5-3.15Q261.45-3.15 263.18-4.08 264.9-5 266.35-6.65L266.35-6.65 266.35-25.33 270.8-25.33 270.8 0 268.15 0Q267.2 0 266.95-0.93L266.95-0.93 266.6-3.65Q264.95-1.83 262.9-0.71 260.85 0.4 258.2 0.4L258.2 0.4Q256.13 0.4 254.54-0.29 252.95-0.98 251.88-2.23 250.8-3.48 250.26-5.25 249.73-7.03 249.73-9.18L249.73-9.18 249.73-25.33ZM285.8 0.4L285.8 0.4Q282.8 0.4 281.19-1.28 279.57-2.95 279.57-6.1L279.57-6.1 279.57-21.6 276.52-21.6Q276.12-21.6 275.85-21.84 275.57-22.08 275.57-22.58L275.57-22.58 275.57-24.35 279.72-24.88 280.75-32.7Q280.8-33.08 281.07-33.31 281.35-33.55 281.77-33.55L281.77-33.55 284.02-33.55 284.02-24.83 291.27-24.83 291.27-21.6 284.02-21.6 284.02-6.4Q284.02-4.8 284.8-4.03 285.57-3.25 286.8-3.25L286.8-3.25Q287.5-3.25 288.01-3.44 288.52-3.63 288.9-3.85 289.27-4.08 289.54-4.26 289.8-4.45 290-4.45L290-4.45Q290.35-4.45 290.62-4.03L290.62-4.03 291.92-1.9Q290.77-0.83 289.15-0.21 287.52 0.4 285.8 0.4ZM309.44 0L306.57 0 306.57-36.83 311.04-36.83 311.04-21.68Q312.62-23.5 314.66-24.61 316.69-25.73 319.32-25.73L319.32-25.73Q321.52-25.73 323.29-24.9 325.07-24.08 326.32-22.44 327.57-20.8 328.24-18.39 328.92-15.98 328.92-12.83L328.92-12.83Q328.92-10.03 328.17-7.61 327.42-5.2 326.01-3.44 324.59-1.68 322.56-0.66 320.52 0.35 317.97 0.35L317.97 0.35Q315.52 0.35 313.81-0.6 312.09-1.55 310.82-3.25L310.82-3.25 310.59-0.95Q310.39 0 309.44 0L309.44 0ZM317.87-22.18L317.87-22.18Q315.69-22.18 314.06-21.18 312.42-20.18 311.04-18.35L311.04-18.35 311.04-6.1Q312.24-4.45 313.71-3.78 315.17-3.1 316.97-3.1L316.97-3.1Q320.52-3.1 322.42-5.63 324.32-8.15 324.32-12.83L324.32-12.83Q324.32-15.3 323.88-17.07 323.44-18.85 322.62-19.99 321.79-21.13 320.59-21.65 319.39-22.18 317.87-22.18ZM344.62-25.73L344.62-25.73Q347.39-25.73 349.63-24.8 351.87-23.88 353.43-22.18 354.99-20.48 355.83-18.06 356.67-15.65 356.67-12.68L356.67-12.68Q356.67-9.68 355.83-7.28 354.99-4.88 353.43-3.18 351.87-1.48 349.63-0.56 347.39 0.35 344.62 0.35L344.62 0.35Q341.84 0.35 339.6-0.56 337.37-1.48 335.79-3.18 334.22-4.88 333.37-7.28 332.52-9.68 332.52-12.68L332.52-12.68Q332.52-15.65 333.37-18.06 334.22-20.48 335.79-22.18 337.37-23.88 339.6-24.8 341.84-25.73 344.62-25.73ZM344.62-3.13L344.62-3.13Q348.37-3.13 350.22-5.64 352.07-8.15 352.07-12.65L352.07-12.65Q352.07-17.18 350.22-19.7 348.37-22.23 344.62-22.23L344.62-22.23Q342.72-22.23 341.32-21.58 339.92-20.93 338.98-19.7 338.04-18.48 337.58-16.69 337.12-14.9 337.12-12.65L337.12-12.65Q337.12-10.4 337.58-8.63 338.04-6.85 338.98-5.64 339.92-4.42 341.32-3.78 342.72-3.13 344.62-3.13ZM366.61 0L362.16 0 362.16-25.33 364.71-25.33Q365.44-25.33 365.71-25.05 365.99-24.78 366.09-24.1L366.09-24.1 366.39-20.15Q367.69-22.8 369.6-24.29 371.51-25.78 374.09-25.78L374.09-25.78Q375.14-25.78 375.99-25.54 376.84-25.3 377.56-24.88L377.56-24.88 376.99-21.55Q376.81-20.93 376.21-20.93L376.21-20.93Q375.86-20.93 375.14-21.16 374.41-21.4 373.11-21.4L373.11-21.4Q370.79-21.4 369.23-20.05 367.66-18.7 366.61-16.13L366.61-16.13 366.61 0ZM402.79 0L400.14 0Q399.19 0 398.94-0.93L398.94-0.93 398.54-4Q396.91-2.02 394.82-0.84 392.74 0.35 390.04 0.35L390.04 0.35Q387.86 0.35 386.09-0.49 384.31-1.33 383.06-2.95 381.81-4.58 381.14-7 380.46-9.43 380.46-12.58L380.46-12.58Q380.46-15.38 381.21-17.79 381.96-20.2 383.37-21.98 384.79-23.75 386.81-24.76 388.84-25.78 391.41-25.78L391.41-25.78Q393.74-25.78 395.39-24.99 397.04-24.2 398.34-22.78L398.34-22.78 398.34-36.83 402.79-36.83 402.79 0ZM391.51-3.25L391.51-3.25Q393.69-3.25 395.32-4.25 396.96-5.25 398.34-7.08L398.34-7.08 398.34-19.33Q397.11-20.98 395.65-21.64 394.19-22.3 392.41-22.3L392.41-22.3Q388.86-22.3 386.96-19.78 385.06-17.25 385.06-12.58L385.06-12.58Q385.06-10.1 385.49-8.34 385.91-6.58 386.74-5.44 387.56-4.3 388.76-3.78 389.96-3.25 391.51-3.25ZM420.28-25.73L420.28-25.73Q422.56-25.73 424.48-24.96 426.41-24.2 427.81-22.76 429.21-21.33 430-19.21 430.78-17.1 430.78-14.4L430.78-14.4Q430.78-13.35 430.56-13 430.33-12.65 429.71-12.65L429.71-12.65 412.86-12.65Q412.91-10.25 413.51-8.47 414.11-6.7 415.16-5.51 416.21-4.33 417.66-3.74 419.11-3.15 420.91-3.15L420.91-3.15Q422.58-3.15 423.8-3.54 425.01-3.93 425.88-4.38 426.76-4.83 427.35-5.21 427.93-5.6 428.36-5.6L428.36-5.6Q428.91-5.6 429.21-5.18L429.21-5.18 430.46-3.55Q429.63-2.55 428.48-1.81 427.33-1.07 426.02-0.6 424.71-0.13 423.31 0.11 421.91 0.35 420.53 0.35L420.53 0.35Q417.91 0.35 415.69-0.54 413.48-1.43 411.87-3.14 410.26-4.85 409.36-7.38 408.46-9.9 408.46-13.18L408.46-13.18Q408.46-15.83 409.27-18.13 410.08-20.43 411.61-22.11 413.13-23.8 415.33-24.76 417.53-25.73 420.28-25.73ZM420.38-22.45L420.38-22.45Q417.16-22.45 415.31-20.59 413.46-18.73 413.01-15.43L413.01-15.43 426.78-15.43Q426.78-16.98 426.36-18.26 425.93-19.55 425.11-20.49 424.28-21.43 423.1-21.94 421.91-22.45 420.38-22.45ZM440.91 0L436.45 0 436.45-25.33 439-25.33Q439.73-25.33 440-25.05 440.28-24.78 440.38-24.1L440.38-24.1 440.68-20.15Q441.98-22.8 443.89-24.29 445.81-25.78 448.38-25.78L448.38-25.78Q449.43-25.78 450.28-25.54 451.13-25.3 451.86-24.88L451.86-24.88 451.28-21.55Q451.11-20.93 450.5-20.93L450.5-20.93Q450.16-20.93 449.43-21.16 448.7-21.4 447.41-21.4L447.41-21.4Q445.08-21.4 443.52-20.05 441.95-18.7 440.91-16.13L440.91-16.13 440.91 0ZM472.1-22.78L471.1-21.15Q470.8-20.6 470.18-20.6L470.18-20.6Q469.8-20.6 469.33-20.88 468.85-21.15 468.16-21.49 467.48-21.83 466.53-22.11 465.58-22.4 464.28-22.4L464.28-22.4Q463.15-22.4 462.25-22.11 461.35-21.83 460.71-21.33 460.08-20.83 459.74-20.16 459.4-19.5 459.4-18.73L459.4-18.73Q459.4-17.75 459.96-17.1 460.53-16.45 461.45-15.98 462.38-15.5 463.55-15.14 464.73-14.78 465.96-14.36 467.2-13.95 468.38-13.45 469.55-12.95 470.48-12.2 471.4-11.45 471.96-10.36 472.53-9.28 472.53-7.75L472.53-7.75Q472.53-6 471.9-4.51 471.28-3.03 470.05-1.94 468.83-0.85 467.05-0.23 465.28 0.4 462.95 0.4L462.95 0.4Q460.3 0.4 458.15-0.46 456-1.33 454.5-2.68L454.5-2.68 455.55-4.38Q455.75-4.7 456.03-4.88 456.3-5.05 456.75-5.05L456.75-5.05Q457.2-5.05 457.7-4.7 458.2-4.35 458.91-3.93 459.63-3.5 460.64-3.15 461.65-2.8 463.18-2.8L463.18-2.8Q464.48-2.8 465.45-3.14 466.43-3.48 467.08-4.05 467.73-4.63 468.04-5.38 468.35-6.13 468.35-6.98L468.35-6.98Q468.35-8.03 467.79-8.71 467.23-9.4 466.3-9.89 465.38-10.38 464.19-10.74 463-11.1 461.76-11.5 460.53-11.9 459.34-12.41 458.15-12.93 457.23-13.7 456.3-14.48 455.74-15.61 455.18-16.75 455.18-18.38L455.18-18.38Q455.18-19.83 455.78-21.16 456.38-22.5 457.53-23.51 458.68-24.53 460.35-25.13 462.03-25.73 464.18-25.73L464.18-25.73Q466.68-25.73 468.66-24.94 470.65-24.15 472.1-22.78L472.1-22.78Z" opacity="1" transform="matrix(1,0,0,1,0,0)" fill="#ffffff" class="undefined-text-1" data-fill-palette-color="secondary" id="text-1"></path></svg></g></svg></g></svg></g></svg></g><g transform="matrix(1,0,0,1,411.23510792411696,0)"><svg viewBox="0 0 73.28009776573526 73.28009776573526" height="73.28009776573526" width="73.28009776573526"><g><svg xmlns="http://www.w3.org/2000/svg" xmlns:xlink="http://www.w3.org/1999/xlink" version="1.1" x="0" y="0" viewBox="5 5 90 90" style="enable-background:new 0 0 100 100;" xml:space="preserve" height="73.28009776573526" width="73.28009776573526" class="icon-icon-0" data-fill-palette-color="accent" id="icon-0"><path d="M84 5H16C9.9 5 5 9.6 5 15.3V67c0 5.7 4.9 10.3 11 10.3h7.2v15.3c0 0.9 0.6 1.8 1.5 2.2 0.4 0.2 0.7 0.2 1.1 0.2 0.6 0 1.2-0.2 1.7-0.5l22.7-17.2H84c6.1 0 11-4.6 11-10.3V15.3C95 9.6 90.1 5 84 5zM46.5 55.5H23.9v-5.1l14.9-18.9H24.3v-5.2h22.1v4.9L31.3 50.3h15.2V55.5zM74.2 55.5h-6.1v-13H56.8v13h-6.1V26.3h6.1v11.1h11.3V26.3h6.1V55.5z" fill="#ffffff" data-fill-palette-color="accent"></path></svg></g></svg></g></svg></g><defs></defs></svg><rect width="395.52" height="59.82009218273467" fill="none" stroke="none" visibility="hidden"></rect></g></svg></g></svg>